# xmcd CD database file
#
# Track frame offsets:
#	150
#	12638
#	25750
#	39612
#	53205
#	66857
#	80110
#	93636
#	107698
#	120599
#	134022
#	148143
#	159082
#	172869
#	185253
#	200298
#	210619
#	225740
#	237209
#	247164
#
# Disc length: 3473 seconds
#
# Revision: 0
# Processed by: cddbd v1.5.1PL0 Copyright (c) Steve Scherf et al.
# Submitted via: CDex 1.51
#
DISCID=1a0d8f14
DTITLE=Bud Powell - BD Jazz (2)
DYEAR=2004
DGENRE=Jazz
TTITLE0=Indiana
TTITLE1=I'll remember april
TTITLE2=Long Tall Dexter
TTITLE3=Jay bird
TTITLE4=Bebop in Pastel (Bouncin' with Bud)
TTITLE5=Rue chaptal
TTITLE6=Cheryl
TTITLE7=Wail
TTITLE8=52nd street theme
TTITLE9=Dance of the infidels
TTITLE10=Bouncin' with Bud
TTITLE11=Sonny Side
TTITLE12=All God's chillun got rhythm
TTITLE13=Fine and Dandy
TTITLE14=So sorry please
TTITLE15=Dusky 'n' sandy (Dusk in sandi)
TTITLE16=The fruit
TTITLE17=Parisian thoroughfare
TTITLE18=Oblivion
TTITLE19=Audrey
EXTD=YEAR: 2004
EXTT0=
EXTT1=
EXTT2=
EXTT3=
EXTT4=
EXTT5=
EXTT6=
EXTT7=
EXTT8=
EXTT9=
EXTT10=
EXTT11=
EXTT12=
EXTT13=
EXTT14=
EXTT15=
EXTT16=
EXTT17=
EXTT18=
EXTT19=
PLAYORDER=
